<?xml version="1.0" encoding="UTF-8"?>
<svg version="1.1" xmlns="http://www.w3.org/2000/svg" width="1865" height="1772">
    <path fill="#005459"
          d="M0 0 C0.81163605 -0.00570007 1.62327209 -0.01140015 2.45950317 -0.01727295 C4.17220787 -0.02666685 5.88493018 -0.03323443 7.59765625 -0.03710938 C10.15398923 -0.04671965 12.70948325 -0.0777567 15.265625 -0.109375 C30.19295237 -0.2069575 44.71900458 1.37937724 58.8828125 6.328125 C59.75212402 6.625979 60.62143555 6.92383301 61.51708984 7.23071289 C79.10650986 13.49796744 93.78459555 23.41816559 107.3203125 36.203125 C108.42826172 37.21439453 108.42826172 37.21439453 109.55859375 38.24609375 C135.87566355 63.16083301 149.32122845 100.0420244 157.36791992 134.47363281 C157.59584229 135.43881836 157.82376465 136.40400391 158.05859375 137.3984375 C158.35310425 138.68258545 158.35310425 138.68258545 158.65356445 139.99267578 C159.28039942 142.45827209 159.28039942 142.45827209 161.3203125 145.203125 C163.711542 145.4144703 163.711542 145.4144703 166.3203125 144.203125 C169.68824991 138.550737 171.43945629 131.94746087 173.3828125 125.703125 C181.65980714 100.16708076 193.44904768 75.1992514 210.3203125 54.203125 C210.80113281 53.60274414 211.28195312 53.00236328 211.77734375 52.38378906 C235.58356419 22.97148637 267.60992016 5.04106018 305.18798828 0.41999817 C311.34004135 -0.2057112 317.57775864 -0.04198139 323.7578125 -0.046875 C324.90222809 -0.04788712 324.90222809 -0.04788712 326.06976318 -0.04891968 C337.10905119 -0.03338447 347.6020328 0.31293386 358.3203125 3.203125 C358.95388672 3.36409668 359.58746094 3.52506836 360.24023438 3.69091797 C376.98149112 8.00896759 392.63276404 15.67141881 406.3203125 26.203125 C407.26132813 26.92242188 408.20234375 27.64171875 409.171875 28.3828125 C450.56960535 61.1511568 470.33065518 113.48192955 478.3203125 164.203125 C478.48547363 165.22680176 478.65063477 166.25047852 478.82080078 167.30517578 C484.27894276 203.01734157 482.63533775 240.70750358 479.07421875 276.54296875 C478.82229939 279.09629334 478.57099553 281.64967873 478.3203125 284.203125 C478.24963562 284.89367981 478.17895874 285.58423462 478.10614014 286.29571533 C477.8993476 288.36917501 477.71477493 290.44356194 477.53515625 292.51953125 C477.42163818 293.7319751 477.30812012 294.94441895 477.19116211 296.19360352 C477.03006704 299.2103651 477.03006704 299.2103651 478.80688477 301.12084961 C479.30631592 301.47800049 479.80574707 301.83515137 480.3203125 302.203125 C485.25188976 300.82932848 487.43419254 297.93336831 490.3203125 293.953125 C499.07538265 282.38758099 508.64623375 271.89309935 520.3203125 263.203125 C521.279375 262.47867187 522.2384375 261.75421875 523.2265625 261.0078125 C540.87499932 248.21715248 559.84598421 240.06016455 581.3203125 236.203125 C582.32320312 236.0175 583.32609375 235.831875 584.359375 235.640625 C600.70006061 233.83573665 618.36928494 233.87440748 634.3203125 238.203125 C635.02591309 238.39116699 635.73151367 238.57920898 636.45849609 238.77294922 C657.86584872 244.6987458 676.26000107 255.98809312 692.3203125 271.203125 C693.19429687 272.01265625 694.06828125 272.8221875 694.96875 273.65625 C707.26385072 285.422908 716.56560667 299.1227719 724.3203125 314.203125 C724.68721191 314.90179688 725.05411133 315.60046875 725.43212891 316.3203125 C745.23731277 354.36824267 751.5628905 397.4367033 751.5078125 439.890625 C751.50720825 440.75894958 751.506604 441.62727417 751.50598145 442.52191162 C751.41231302 492.69277694 746.2105053 543.47847744 735.70532227 592.55566406 C735.50737061 593.50538086 735.30941895 594.45509766 735.10546875 595.43359375 C734.92894775 596.24207764 734.75242676 597.05056152 734.57055664 597.88354492 C734.285042 600.53005676 734.6793262 602.63262458 735.3203125 605.203125 C740.75863213 605.77215695 743.42737637 604.11046428 747.5078125 600.828125 C774.21290777 580.73530794 807.43651746 571.756185 840.56958008 575.97680664 C871.07045577 580.48721257 896.86128874 596.20263196 915.50097656 620.77978516 C935.51520021 648.19599564 945.34287118 680.98133994 950.3203125 714.203125 C950.47129395 715.14591309 950.62227539 716.08870117 950.77783203 717.06005859 C964.12173177 803.61547299 946.7755523 899.53135388 850.3203125 1188.203125 C849.80339844 1189.29866699 849.28648438 1190.39420898 848.75390625 1191.52294922 C842.67153484 1204.40606736 836.42189202 1217.16774358 829.66259766 1229.70996094 C828.20089345 1232.42493426 826.75098473 1235.14605514 825.30078125 1237.8671875 C817.64208619 1252.18067708 809.59818153 1266.23981335 801.3203125 1280.203125 C800.8061377 1281.07420898 800.29196289 1281.94529297 799.76220703 1282.84277344 C776.77423413 1321.75700546 751.55075295 1359.77837233 723.71582031 1395.41308594 C722.10697586 1397.47677515 720.5065098 1399.54683482 718.90625 1401.6171875 C710.30226022 1412.73627887 701.5157238 1423.6571989 692.40551758 1434.36621094 C689.49384556 1437.79410079 686.64242294 1441.26318437 683.8203125 1444.765625 C679.69341044 1449.83919993 675.31928692 1454.64053642 670.875 1459.43359375 C668.81917528 1461.66230893 666.80414293 1463.91080419 664.8203125 1466.203125 C660.09923081 1471.63850747 655.20281636 1476.91335964 650.3203125 1482.203125 C649.81071487 1482.75628891 649.30111725 1483.30945282 648.77607727 1483.87937927 C640.33306559 1493.03338489 631.70628995 1501.97652466 622.88623047 1510.76757812 C620.92166049 1512.72671156 618.96259802 1514.69124144 617.00390625 1516.65625 C605.66484358 1528.00067426 605.66484358 1528.00067426 599.89794922 1532.83984375 C598.11511886 1534.38043872 596.46975836 1536.02125101 594.8203125 1537.703125 C591.83158913 1540.73907425 588.70324771 1543.54821159 585.4765625 1546.328125 C583.12068292 1548.37671594 580.8152379 1550.47515502 578.5078125 1552.578125 C574.21422618 1556.45346243 569.78943248 1560.1253381 565.29296875 1563.76171875 C561.98278984 1566.48032823 558.74556274 1569.2741939 555.5078125 1572.078125 C549.23484192 1577.48924546 542.79406536 1582.64303198 536.2421875 1587.7109375 C534.17767391 1589.31387285 532.12348774 1590.92944558 530.0703125 1592.546875 C519.68062423 1600.71329299 509.10116304 1608.5617406 498.3203125 1616.203125 C497.10142334 1617.0698584 497.10142334 1617.0698584 495.85791016 1617.95410156 C485.21960239 1625.5083934 474.47838093 1632.85181931 463.4609375 1639.84228516 C461.26292853 1641.23960518 459.0726265 1642.6484718 456.8828125 1644.05859375 C437.51163302 1656.47903544 417.54547204 1667.84652027 397.23339844 1678.65039062 C394.43603446 1680.14144283 391.64745416 1681.64792837 388.859375 1683.15625 C317.97896006 1721.17785759 239.05454372 1747.4604551 153.3203125 1762.203125 C152.62260742 1762.32109436 151.92490234 1762.43906372 151.20605469 1762.56060791 C133.16950507 1765.59990144 115.09345442 1767.75638684 96.8828125 1769.453125 C95.99237244 1769.53629974 95.10193237 1769.61947449 94.18450928 1769.70516968 C71.57027623 1771.78980385 49.0909514 1772.44666518 26.3828125 1772.453125 C25.31204908 1772.45378778 25.31204908 1772.45378778 24.21965408 1772.45446396 C-56.55118642 1772.48058717 -136.16367154 1760.43110531 -374.6796875 1661.203125 C-375.49808105 1660.70409668 -376.31647461 1660.20506836 -377.15966797 1659.69091797 C-386.83061576 1653.77678582 -396.31854429 1647.59556211 -405.6796875 1641.203125 C-406.42702148 1640.69297852 -407.17435547 1640.18283203 -407.94433594 1639.65722656 C-421.17987456 1630.58592132 -433.99643261 1621.02847977 -446.6796875 1611.203125 C-447.35789551 1610.68089355 -448.03610352 1610.15866211 -448.73486328 1609.62060547 C-457.02830202 1603.23360566 -465.03543629 1596.56887327 -472.93847656 1589.70605469 C-474.65222505 1588.22682927 -476.37812028 1586.7633659 -478.109375 1585.3046875 C-489.46854964 1575.71403608 -500.4154476 1565.65131218 -510.81982422 1555.02856445 C-512.62742458 1553.2544206 -514.49790878 1551.61752361 -516.4296875 1549.98046875 C-520.63608072 1546.32260933 -524.41611014 1542.37134576 -528.1796875 1538.265625 C-529.49114913 1536.84929822 -530.80363783 1535.43392172 -532.1171875 1534.01953125 C-532.73464844 1533.35453613 -533.35210938 1532.68954102 -533.98828125 1532.00439453 C-536.00594533 1529.85567548 -538.07715367 1527.76870022 -540.1796875 1525.703125 C-543.22629979 1522.70237569 -546.0527449 1519.56635415 -548.83984375 1516.32421875 C-550.87477569 1513.97821442 -552.96259717 1511.6857605 -555.0546875 1509.390625 C-558.88005075 1505.14736492 -562.5306284 1500.79453003 -566.12109375 1496.3515625 C-568.00231159 1494.02501046 -569.91098502 1491.72345691 -571.83203125 1489.4296875 C-580.20542724 1479.40796635 -588.16231654 1469.12864799 -595.90527344 1458.61279297 C-597.02766456 1457.08857717 -598.1529499 1455.56648469 -599.28222656 1454.04736328 C-615.67069063 1431.99562334 -630.76132368 1408.88276098 -644.6796875 1385.203125 C-645.17307617 1384.36652344 -645.66646484 1383.52992187 -646.17480469 1382.66796875 C-652.86936133 1371.26804418 -659.18317473 1359.66508282 -665.4296875 1348.015625 C-665.79237732 1347.34175751 -666.15506714 1346.66789001 -666.52874756 1345.97360229 C-667.55765919 1344.05905596 -668.58060105 1342.14145149 -669.6015625 1340.22265625 C-670.19549805 1339.10995361 -670.78943359 1337.99725098 -671.40136719 1336.85083008 C-672.6796875 1334.203125 -672.6796875 1334.203125 -672.6796875 1332.203125 C-673.41268066 1332.59991455 -674.14567383 1332.9967041 -674.90087891 1333.40551758 C-723.13304922 1359.47767266 -773.94047639 1384.64554539 -828.6796875 1393.203125 C-829.40220703 1393.31736816 -830.12472656 1393.43161133 -830.86914062 1393.54931641 C-853.01717935 1396.91338619 -875.29786062 1396.83834951 -894.6796875 1384.203125 C-903.14332976 1377.68841977 -909.47573383 1368.79511667 -911.6796875 1358.203125 C-913.02027234 1338.44371693 -911.11290966 1321.15981161 -897.91796875 1305.625 C-882.94557743 1289.42450677 -860.88935909 1281.5021681 -840.88012695 1273.27685547 C-802.90930165 1257.65226567 -764.97337691 1239.97699337 -729.92773438 1218.51806641 C-729.02603516 1217.96683105 -728.12433594 1217.4155957 -727.1953125 1216.84765625 C-726.37836914 1216.34210205 -725.56142578 1215.83654785 -724.71972656 1215.31567383 C-722.6796875 1214.203125 -722.6796875 1214.203125 -720.6796875 1214.203125 C-721.28103516 1212.43001953 -721.28103516 1212.43001953 -721.89453125 1210.62109375 C-740.55601891 1154.43566948 -751.30447775 1094.78132511 -756.3671875 1035.890625 C-756.42812592 1035.18212402 -756.48906433 1034.47362305 -756.55184937 1033.74365234 C-756.90522268 1029.5778229 -757.23152367 1025.4107169 -757.53179932 1021.24072266 C-757.67265875 1019.29996685 -757.82313804 1017.35991636 -757.97412109 1015.41992188 C-759.15830474 998.76423693 -758.92564035 982.01671524 -758.9296875 965.328125 C-758.93035028 964.07667631 -758.93035028 964.07667631 -758.93102646 962.79994583 C-758.93850834 935.82841485 -758.43037523 909.05604298 -755.6796875 882.203125 C-755.59247437 881.3343573 -755.50526123 880.4655896 -755.41540527 879.57049561 C-745.8520898 784.72963172 -722.48986382 681.79676867 -652.6796875 607.203125 C-652.20660156 606.70135742 -651.73351562 606.19958984 -651.24609375 605.68261719 C-643.65788224 597.68826157 -635.56282989 590.72181255 -626.6796875 584.203125 C-626.12539063 583.78853027 -625.57109375 583.37393555 -625 582.94677734 C-588.76811142 556.12369786 -541.58891589 547.02989194 -497.3671875 553.328125 C-481.0712771 555.94297866 -465.4915937 560.9790145 -450.6796875 568.203125 C-449.7103125 568.67363281 -448.7409375 569.14414062 -447.7421875 569.62890625 C-407.83338742 590.22138304 -382.33790004 630.61656029 -368.6796875 672.203125 C-368.4125293 673.01281738 -368.14537109 673.82250977 -367.87011719 674.65673828 C-360.86983228 696.36970582 -356.93477357 718.89186982 -354.3671875 741.515625 C-354.28587585 742.22889954 -354.20456421 742.94217407 -354.12078857 743.67706299 C-352.08148609 761.87500893 -351.47108887 779.95850623 -351.4921875 798.265625 C-351.49312408 799.32136719 -351.49406067 800.37710938 -351.49502563 801.46484375 C-351.65426242 884.70097154 -368.84401967 966.33579212 -460.6796875 1141.203125 C-461.2557373 1142.00588867 -461.83178711 1142.80865234 -462.42529297 1143.63574219 C-470.24934884 1154.51739981 -478.42519658 1165.02691905 -487.05859375 1175.27783203 C-488.58454555 1177.09012961 -490.10196053 1178.90920309 -491.6171875 1180.73046875 C-496.90903016 1187.06749906 -502.35868699 1193.23168407 -507.9765625 1199.28125 C-509.66913375 1201.11079233 -511.34850351 1202.95273758 -513.0078125 1204.8125 C-519.55400436 1212.11889479 -526.44106416 1219.07296925 -533.3671875 1226.015625 C-533.86464478 1226.51567047 -534.36210205 1227.01571594 -534.87463379 1227.53091431 C-540.07427864 1232.75186918 -545.30865273 1237.88549467 -550.90795898 1242.6809082 C-554.14126864 1245.45887233 -557.2434987 1248.38125067 -560.36523438 1251.28320312 C-563.37235982 1254.06053506 -566.45306165 1256.68435125 -569.6796875 1259.203125 C-569.11719324 1264.54420668 -567.27611562 1268.57824583 -564.8828125 1273.29296875 C-564.49777557 1274.06581207 -564.11273865 1274.8386554 -563.71603394 1275.63491821 C-562.46305706 1278.14153045 -561.1973677 1280.64142016 -559.9296875 1283.140625 C-559.49895935 1283.99526337 -559.0682312 1284.84990173 -558.62445068 1285.73043823 C-538.97303867 1324.71020156 -515.93122867 1362.23064088 -488.94042969 1396.59521484 C-487.62050849 1398.27860002 -486.30981633 1399.96889953 -485 1401.66015625 C-479.20536394 1409.11938449 -473.23178792 1416.39749612 -467.08007812 1423.56445312 C-465.67172148 1425.21244646 -464.27611892 1426.87052177 -462.8828125 1428.53125 C-451.01251843 1442.62633693 -438.18366191 1455.78584215 -425.1796875 1468.828125 C-424.41078186 1469.60104889 -424.41078186 1469.60104889 -423.62634277 1470.3895874 C-418.35885323 1475.67799141 -413.06052684 1480.88431439 -407.38720703 1485.74072266 C-404.99120287 1487.79277654 -402.68419412 1489.93768653 -400.3671875 1492.078125 C-395.93472276 1496.11591822 -391.40226573 1499.97619934 -386.734375 1503.73828125 C-384.4965717 1505.54397675 -382.27486851 1507.36291812 -380.0625 1509.19921875 C-370.94270178 1516.74014904 -361.55685366 1523.79672682 -351.89697266 1530.62988281 C-349.7680187 1532.14045089 -347.65032993 1533.66553015 -345.53515625 1535.1953125 C-301.58435663 1566.83506653 -253.20833237 1591.93264275 -202.6796875 1611.203125 C-201.53064941 1611.64253418 -200.38161133 1612.08194336 -199.19775391 1612.53466797 C-135.09823788 1636.81214134 -66.16620459 1649.61060768 2.2578125 1651.765625 C2.91449921 1651.78647156 3.57118591 1651.80731812 4.24777222 1651.82879639 C13.9440893 1652.13356507 23.61961431 1652.41544372 33.3203125 1652.203125 C34.7439209 1652.17629639 34.7439209 1652.17629639 36.19628906 1652.14892578 C121.86670482 1650.37223081 206.97747975 1633.13810923 311.3203125 1588.203125 C312.4242334 1587.69104492 313.5281543 1587.17896484 314.66552734 1586.65136719 C329.53656046 1579.72476647 344.05123881 1572.29585827 358.3203125 1564.203125 C359.39168457 1563.59936035 360.46305664 1562.9955957 361.56689453 1562.37353516 C381.79234785 1550.92565663 401.14431746 1538.32291629 420.3203125 1525.203125 C421.23296875 1524.58034668 422.145625 1523.95756836 423.0859375 1523.31591797 C440.20746557 1511.58384441 456.60291464 1498.80836138 472.61132812 1485.60791016 C474.20019573 1484.30186099 475.79893303 1483.00784419 477.3984375 1481.71484375 C482.73832818 1477.39669193 487.90975369 1472.94297223 492.98828125 1468.3203125 C495.07855139 1466.42261331 497.19017365 1464.55579085 499.3203125 1462.703125 C504.03582583 1458.58999261 508.68521175 1454.40652133 513.3203125 1450.203125 C514.69981079 1448.95390259 514.69981079 1448.95390259 516.10717773 1447.67944336 C524.49577899 1440.03411383 532.57573959 1432.10237806 540.58837891 1424.06542969 C542.71012259 1421.93827716 544.83722741 1419.81658939 546.96484375 1417.6953125 C548.3414669 1416.31802917 549.71778016 1414.94043601 551.09375 1413.5625 C551.71680023 1412.941474 552.33985046 1412.320448 552.98178101 1411.68060303 C556.71289065 1407.92983183 560.2587064 1404.06494989 563.70819092 1400.05335999 C566.44460689 1396.91277021 569.33025254 1393.91335778 572.1953125 1390.890625 C577.11525023 1385.6636384 581.77405932 1380.34449638 586.25390625 1374.734375 C588.32144032 1372.20174347 590.48144591 1369.7958134 592.6953125 1367.390625 C596.65611925 1363.03989427 600.28990533 1358.50504604 603.88891602 1353.85693359 C606.97567195 1349.88136559 610.14283523 1345.98733362 613.37060547 1342.12548828 C621.45033091 1332.45175771 628.94060418 1322.41680975 636.3203125 1312.203125 C637.43587336 1310.66773289 638.55175463 1309.13257352 639.66796875 1307.59765625 C642.3829227 1303.85860185 645.08371854 1300.10963649 647.77636719 1296.35449219 C648.77495635 1294.96303619 649.77547898 1293.57296484 650.77832031 1292.18457031 C660.41987054 1278.82913987 669.39415532 1265.04187154 678.3203125 1251.203125 C678.87219238 1250.34960449 679.42407227 1249.49608398 679.99267578 1248.61669922 C697.93287018 1220.80391955 714.38406115 1191.97947535 729.54296875 1162.56640625 C731.22854118 1159.29624569 732.93589506 1156.04172812 734.69140625 1152.80859375 C773.01363007 1082.03368071 801.5306205 1003.93854596 843.56054688 770.63378906 C843.57027502 767.83889232 843.60143312 765.04472633 843.6328125 762.25 C843.75694091 741.17629695 841.11775003 719.54929701 826.48046875 703.140625 C816.25173523 693.43483286 804.31291792 691.70572956 790.84765625 691.92578125 C779.61537108 692.3929216 769.96059026 698.12360771 762.3203125 706.140625 C740.89767833 731.72052282 733.13235013 767.76717238 723.50668335 798.99414062 C697.04543963 884.80859625 666.45123963 975.17526208 598.1328125 1069.578125 C597.65763184 1070.13749756 597.18245117 1070.69687012 596.69287109 1071.27319336 C582.26853041 1087.99378558 562.83255564 1103.51980876 540.10546875 1105.48046875 C525.36866232 1105.91854266 512.00433192 1101.30250511 501.16015625 1091.16796875 C489.65225318 1078.87821239 484.79394872 1063.84624848 485.07421875 1047.27734375 C486.88639996 1009.79855126 506.98176973 972.93387365 522.02246094 939.33984375 C531.95337482 917.15408917 541.57435242 894.88678232 550.3203125 872.203125 C550.57085388 871.55355835 550.82139526 870.9039917 551.07952881 870.23474121 C586.28593199 778.75141472 611.91423748 684.11020721 639.3203125 485.203125 C639.37670898 484.28305664 639.43310547 483.36298828 639.49121094 482.41503906 C643.62526997 422.5686404 643.62526997 422.5686404 620.34204102 369.12817383 C612.04642501 359.9219396 602.26546756 354.00998197 589.8125 352.88671875 C575.74095974 352.43885659 564.94507744 355.91287159 554.3203125 365.203125 C527.14565778 390.75055489 521.87546597 435.96956942 514.60684204 470.43452454 C495.20660241 562.23269136 473.09405978 654.65541044 435.3203125 753.203125 C435.06697144 753.83575256 434.81363037 754.46838013 434.5526123 755.12017822 C389.9554035 866.29538899 389.9554035 866.29538899 344.17578125 886.59765625 C330.8052535 891.66306369 317.61259913 891.73873023 304.3203125 886.203125 C289.49615513 878.81180844 280.67810788 867.85793338 275.3203125 852.203125 C261.22434725 806.68490387 289.68064131 737.53976643 302.5703125 694.078125 C332.06053107 594.62057968 354.26578071 492.78734698 376.3203125 285.203125 C376.37671906 284.16656769 376.37671906 284.16656769 376.43426514 283.10906982 C381.75443271 205.62114202 381.75443271 205.62114202 352.44140625 136.48828125 C344.35756623 127.77917184 333.41805096 121.69708705 321.4140625 120.96484375 C306.44958756 120.60224678 296.09023353 123.31019608 284.8203125 133.453125 C283.5828125 134.814375 283.5828125 134.814375 282.3203125 136.203125 C281.76085938 136.77289063 281.20140625 137.34265625 280.625 137.9296875 C251.43293814 170.43097094 248.07936727 226.96104508 241.75527954 268.32342529 C240.0415077 279.5228071 238.28014998 290.71476972 236.515625 301.90625 C236.33870684 303.02913296 236.16178867 304.15201591 235.97950935 305.30892563 C224.80927422 376.09693009 211.42499332 446.59671097 194.3203125 516.203125 C194.1078186 517.06923401 193.89532471 517.93534302 193.6763916 518.82769775 C184.83020566 554.81202571 174.46299271 590.19143202 162.3203125 625.203125 C161.89250488 626.43675781 161.46469727 627.67039062 161.02392578 628.94140625 C145.75666087 672.49641189 124.70762622 728.99310046 80.83886719 750.78076172 C69.69300299 756.0693321 55.33077299 756.01065275 43.6953125 752.140625 C37.74906769 749.683213 33.02997005 746.55413127 28.3203125 742.203125 C27.70800781 741.68105469 27.09570312 741.15898438 26.46484375 740.62109375 C16.94351145 731.98253398 11.11644767 719.31253953 10.11328125 706.57421875 C7.85371133 659.12325051 22.27439943 611.25720726 32.87890625 565.46972656 C54.67159422 471.35164562 68.64695582 376.86250738 72.3203125 254.203125 C72.33233704 253.43726074 72.34436157 252.67139648 72.35675049 251.88232422 C74.40636747 187.88193515 74.40636747 187.88193515 47.48828125 132.13671875 C38.31583888 123.95589177 26.9622923 119.86624947 14.7421875 120.05078125 C1.77600307 120.86639608 -9.21150936 126.40066621 -18.6796875 135.203125 C-33.05986007 152.89244049 -40.06685627 174.34808992 -44.59375 196.375 C-44.98024971 198.252799 -44.98024971 198.252799 -45.3745575 200.16853333 C-48.08064367 213.56313059 -50.00528634 227.0599118 -51.89007568 240.58990479 C-52.93240743 248.06063024 -54.02112555 255.52470135 -55.11328125 262.98828125 C-55.22213402 263.73265694 -55.33098679 264.47703262 -55.44313812 265.24396515 C-64.22584546 325.15125909 -77.2553232 384.42838527 -91.6796875 443.203125 C-92.05450256 444.73525635 -92.05450256 444.73525635 -92.43688965 446.29833984 C-129.68652666 598.43524796 -129.68652666 598.43524796 -164.6796875 664.203125 C-165.04884277 664.91339844 -165.41799805 665.62367188 -165.79833984 666.35546875 C-171.76803666 677.81331511 -178.5920762 688.13221703 -186.6796875 698.203125 C-187.32808594 699.02554688 -187.97648438 699.84796875 -188.64453125 700.6953125 C-197.73003437 711.68342686 -211.07875902 720.87782501 -225.39453125 722.99609375 C-239.8747249 724.30797454 -255.28696331 721.43292741 -266.8046875 712.05078125 C-277.53098585 701.48090809 -282.28743744 688.13130126 -282.73925781 673.23974609 C-282.92514108 637.65999907 -266.41756208 601.8136858 -254.61523438 568.87890625 C-248.61199978 552.11393903 -242.87000274 535.27499697 -237.37249756 518.33758545 C-236.91138882 516.91696757 -236.44951786 515.49659686 -235.98687744 514.07647705 C-204.6129933 417.75596648 -185.75232456 318.60871316 -170.93554688 216.046875 C-162.58267398 158.18225115 -148.30681334 96.22773867 -108.6796875 51.203125 C-107.82890625 50.21957031 -106.978125 49.23601563 -106.1015625 48.22265625 C-79.68254746 18.17394804 -40.05861923 0.22539349 0 0 Z M-578.59375 693.4296875 C-633.73012672 759.43383035 -637.61761449 868.76132555 -635.08204651 1019.24127197 C-631.57906253 1057.91365786 -625.419327 1096.59252252 -615.6796875 1134.203125 C-611.91043204 1134.203125 -610.98089127 1132.85492415 -608.402771 1130.29174805 C-607.84962219 1129.72625244 -607.29647339 1129.16075684 -606.7265625 1128.578125 C-605.85889252 1127.70764526 -605.85889252 1127.70764526 -604.97369385 1126.81958008 C-603.74636338 1125.5855167 -602.52264132 1124.34785583 -601.30224609 1123.10693359 C-599.45772177 1121.23162712 -597.60309732 1119.36684748 -595.74609375 1117.50390625 C-589.85175741 1111.57077205 -584.07812567 1105.59635229 -578.6796875 1099.203125 C-577.71929997 1098.10774841 -576.75709647 1097.01396099 -575.79296875 1095.921875 C-568.29565624 1087.33935558 -561.37839068 1078.41903594 -554.6796875 1069.203125 C-554.19000488 1068.53442383 -553.70032227 1067.86572266 -553.19580078 1067.17675781 C-528.85224754 1033.8358016 -509.54894682 997.05799047 -495.6796875 958.203125 C-495.32712891 957.23165527 -494.97457031 956.26018555 -494.61132812 955.25927734 C-475.93027356 903.43074182 -468.45979243 847.72064054 -468.4296875 792.828125 C-468.42901276 791.71917877 -468.42833801 790.61023254 -468.42764282 789.46768188 C-468.45456545 761.59571719 -469.89442324 732.97492414 -481.6796875 707.203125 C-482.16953125 706.12933594 -482.659375 705.05554688 -483.1640625 703.94921875 C-490.41092715 689.33470837 -501.34087177 678.30265307 -516.9296875 672.828125 C-521.17485737 671.54965685 -525.24395249 670.53789745 -529.6796875 670.203125 C-530.3396875 670.1515625 -530.9996875 670.1 -531.6796875 670.046875 C-550.30947718 669.24845544 -566.72281756 679.90799144 -578.59375 693.4296875 Z "
          transform="translate(911.6796875,-0.203125)"/>
</svg>
